# xmcd
#
# Track frame offsets:
#	150
#	20049
#	43347
#	63024
#	85752
#	108887
#	137039
#	154137
#	176007
#	195092
#	215911
#	237872
#
# Disc length: 3503 seconds
#
# Revision: 0
# Processed by: cddbd v1.5.2PL0 Copyright (c) Steve Scherf et al.
# Submitted via: EasyCDDAExtractor 2010.6.0.0
#
DISCID=9f0dad0c
DTITLE=Suellen Lima - Pra Gloria De Deus
DYEAR=2010
DGENRE=Gospel
TTITLE0=Eh Voce Agora
TTITLE1=Compromisso
TTITLE2=Eu Vou Acreditar
TTITLE3=Territorio De Deus
TTITLE4=Estou Na Bencao
TTITLE5=O Prometido
TTITLE6=Ungido Vence
TTITLE7=Inexplicavel
TTITLE8=Conviccao
TTITLE9=Um Rio A Atravessar
TTITLE10=A Casa
TTITLE11=Pra Gloria De Deus
EXTD=
EXTT0=
EXTT1=
EXTT2=
EXTT3=
EXTT4=
EXTT5=
EXTT6=
EXTT7=
EXTT8=
EXTT9=
EXTT10=
EXTT11=
PLAYORDER=
